<svg xmlns="http://www.w3.org/2000/svg" xmlns:xlink="http://www.w3.org/1999/xlink" width="14" height="14" viewBox="0 0 14 14"><defs><style>.a{fill:#a2d7dd;}.b{clip-path:url(#a);}.c{fill:#f3f3f2;}</style><clipPath id="a"><rect class="a" width="14" height="14" rx="5" transform="translate(735 138)"/></clipPath></defs><g class="b" transform="translate(-735 -138)"><g transform="translate(735.785 138)"><path class="c" d="M3.433,15.783a2.987,2.987,0,0,0,.144.983,1.021,1.021,0,0,0,.719.719,1.192,1.192,0,0,0,.222.022H12.1a.389.389,0,0,0,.053,0c.724-.047,1.019-.8,1.019-1.722l.3-7.364H3.129Zm6.936-5.722h1.44v5.8h-1.44Zm-2.786,0H9.024v5.8H7.583v-5.8Zm-2.785,0H6.241v5.8H4.8Z" transform="translate(-2.089 -3.508)"/><path class="c" d="M10.642,2.441c0-.055.007-.111.007-.167V2.122A2.125,2.125,0,0,0,8.526,0H6.593A2.125,2.125,0,0,0,4.471,2.122v.153c0,.056,0,.111.009.167H1.346V4.153H13.776V2.441ZM9.317,2.275a.814.814,0,0,1-.018.167H5.821A.814.814,0,0,1,5.8,2.275V2.122a.792.792,0,0,1,.79-.79H8.526a.79.79,0,0,1,.79.79Z" transform="translate(-1.346 0)"/></g></g></svg>